<svg width="1583" height="1089" viewBox="0 0 1583 1089" fill="none" xmlns="http://www.w3.org/2000/svg">
<rect width="1583" height="1089" fill="white"/>
<rect x="43" y="39" width="1497" height="1010" fill="black"/>
<rect x="151" y="873" width="1242" height="120" rx="10" fill="#D9D9D9"/>
<path d="M152.409 149.455H161.932L173.318 170.045H173.773L185.159 149.455H194.682L177.75 178.636V196H169.341V178.636L152.409 149.455ZM209.017 196.682C205.608 196.682 202.653 195.932 200.153 194.432C197.653 192.932 195.714 190.833 194.335 188.136C192.972 185.439 192.29 182.288 192.29 178.682C192.29 175.076 192.972 171.917 194.335 169.205C195.714 166.492 197.653 164.386 200.153 162.886C202.653 161.386 205.608 160.636 209.017 160.636C212.426 160.636 215.381 161.386 217.881 162.886C220.381 164.386 222.313 166.492 223.676 169.205C225.055 171.917 225.744 175.076 225.744 178.682C225.744 182.288 225.055 185.439 223.676 188.136C222.313 190.833 220.381 192.932 217.881 194.432C215.381 195.932 212.426 196.682 209.017 196.682ZM209.062 190.091C210.911 190.091 212.456 189.583 213.699 188.568C214.941 187.538 215.866 186.159 216.472 184.432C217.093 182.705 217.403 180.78 217.403 178.659C217.403 176.523 217.093 174.591 216.472 172.864C215.866 171.121 214.941 169.735 213.699 168.705C212.456 167.674 210.911 167.159 209.062 167.159C207.169 167.159 205.593 167.674 204.335 168.705C203.093 169.735 202.161 171.121 201.54 172.864C200.934 174.591 200.631 176.523 200.631 178.659C200.631 180.78 200.934 182.705 201.54 184.432C202.161 186.159 203.093 187.538 204.335 188.568C205.593 189.583 207.169 190.091 209.062 190.091ZM254.977 181.318V161.091H263.205V196H255.227V189.795H254.864C254.076 191.75 252.78 193.348 250.977 194.591C249.189 195.833 246.985 196.455 244.364 196.455C242.076 196.455 240.053 195.947 238.295 194.932C236.553 193.902 235.189 192.409 234.205 190.455C233.22 188.485 232.727 186.106 232.727 183.318V161.091H240.955V182.045C240.955 184.258 241.561 186.015 242.773 187.318C243.985 188.621 245.576 189.273 247.545 189.273C248.758 189.273 249.932 188.977 251.068 188.386C252.205 187.795 253.136 186.917 253.864 185.75C254.606 184.568 254.977 183.091 254.977 181.318ZM271.665 196V161.091H279.642V166.909H280.006C280.642 164.894 281.733 163.341 283.278 162.25C284.839 161.144 286.619 160.591 288.619 160.591C289.074 160.591 289.581 160.614 290.142 160.659C290.718 160.689 291.195 160.742 291.574 160.818V168.386C291.225 168.265 290.672 168.159 289.915 168.068C289.172 167.962 288.453 167.909 287.756 167.909C286.256 167.909 284.907 168.235 283.71 168.886C282.528 169.523 281.597 170.409 280.915 171.545C280.233 172.682 279.892 173.992 279.892 175.477V196H271.665ZM311.233 156.523V149.455H348.369V156.523H333.983V196H325.619V156.523H311.233ZM360.46 196.705C358.248 196.705 356.256 196.311 354.483 195.523C352.725 194.72 351.331 193.538 350.301 191.977C349.286 190.417 348.778 188.492 348.778 186.205C348.778 184.235 349.142 182.606 349.869 181.318C350.597 180.03 351.589 179 352.847 178.227C354.104 177.455 355.521 176.871 357.097 176.477C358.688 176.068 360.331 175.773 362.028 175.591C364.074 175.379 365.733 175.189 367.006 175.023C368.278 174.841 369.203 174.568 369.778 174.205C370.369 173.826 370.665 173.242 370.665 172.455V172.318C370.665 170.606 370.157 169.28 369.142 168.341C368.127 167.402 366.665 166.932 364.756 166.932C362.741 166.932 361.142 167.371 359.96 168.25C358.794 169.129 358.006 170.167 357.597 171.364L349.915 170.273C350.521 168.152 351.521 166.379 352.915 164.955C354.309 163.515 356.013 162.439 358.028 161.727C360.044 161 362.271 160.636 364.71 160.636C366.392 160.636 368.066 160.833 369.733 161.227C371.4 161.621 372.922 162.273 374.301 163.182C375.68 164.076 376.786 165.295 377.619 166.841C378.468 168.386 378.892 170.318 378.892 172.636V196H370.983V191.205H370.71C370.21 192.174 369.506 193.083 368.597 193.932C367.703 194.765 366.574 195.439 365.21 195.955C363.862 196.455 362.278 196.705 360.46 196.705ZM362.597 190.659C364.248 190.659 365.68 190.333 366.892 189.682C368.104 189.015 369.036 188.136 369.688 187.045C370.354 185.955 370.688 184.765 370.688 183.477V179.364C370.43 179.576 369.991 179.773 369.369 179.955C368.763 180.136 368.081 180.295 367.324 180.432C366.566 180.568 365.816 180.689 365.074 180.795C364.331 180.902 363.688 180.992 363.142 181.068C361.915 181.235 360.816 181.508 359.847 181.886C358.877 182.265 358.112 182.795 357.551 183.477C356.991 184.144 356.71 185.008 356.71 186.068C356.71 187.583 357.263 188.727 358.369 189.5C359.475 190.273 360.884 190.659 362.597 190.659ZM404.597 161.091V167.455H384.528V161.091H404.597ZM389.483 152.727H397.71V185.5C397.71 186.606 397.877 187.455 398.21 188.045C398.559 188.621 399.013 189.015 399.574 189.227C400.134 189.439 400.756 189.545 401.438 189.545C401.953 189.545 402.422 189.508 402.847 189.432C403.286 189.356 403.619 189.288 403.847 189.227L405.233 195.659C404.794 195.811 404.165 195.977 403.347 196.159C402.544 196.341 401.559 196.447 400.392 196.477C398.331 196.538 396.475 196.227 394.824 195.545C393.172 194.848 391.862 193.773 390.892 192.318C389.938 190.864 389.468 189.045 389.483 186.864V152.727ZM428.909 161.091V167.455H408.841V161.091H428.909ZM413.795 152.727H422.023V185.5C422.023 186.606 422.189 187.455 422.523 188.045C422.871 188.621 423.326 189.015 423.886 189.227C424.447 189.439 425.068 189.545 425.75 189.545C426.265 189.545 426.735 189.508 427.159 189.432C427.598 189.356 427.932 189.288 428.159 189.227L429.545 195.659C429.106 195.811 428.477 195.977 427.659 196.159C426.856 196.341 425.871 196.447 424.705 196.477C422.644 196.538 420.788 196.227 419.136 195.545C417.485 194.848 416.174 193.773 415.205 192.318C414.25 190.864 413.78 189.045 413.795 186.864V152.727ZM450.642 196.682C447.233 196.682 444.278 195.932 441.778 194.432C439.278 192.932 437.339 190.833 435.96 188.136C434.597 185.439 433.915 182.288 433.915 178.682C433.915 175.076 434.597 171.917 435.96 169.205C437.339 166.492 439.278 164.386 441.778 162.886C444.278 161.386 447.233 160.636 450.642 160.636C454.051 160.636 457.006 161.386 459.506 162.886C462.006 164.386 463.938 166.492 465.301 169.205C466.68 171.917 467.369 175.076 467.369 178.682C467.369 182.288 466.68 185.439 465.301 188.136C463.938 190.833 462.006 192.932 459.506 194.432C457.006 195.932 454.051 196.682 450.642 196.682ZM450.688 190.091C452.536 190.091 454.081 189.583 455.324 188.568C456.566 187.538 457.491 186.159 458.097 184.432C458.718 182.705 459.028 180.78 459.028 178.659C459.028 176.523 458.718 174.591 458.097 172.864C457.491 171.121 456.566 169.735 455.324 168.705C454.081 167.674 452.536 167.159 450.688 167.159C448.794 167.159 447.218 167.674 445.96 168.705C444.718 169.735 443.786 171.121 443.165 172.864C442.559 174.591 442.256 176.523 442.256 178.659C442.256 180.78 442.559 182.705 443.165 184.432C443.786 186.159 444.718 187.538 445.96 188.568C447.218 189.583 448.794 190.091 450.688 190.091ZM489.58 196.682C486.17 196.682 483.216 195.932 480.716 194.432C478.216 192.932 476.277 190.833 474.898 188.136C473.534 185.439 472.852 182.288 472.852 178.682C472.852 175.076 473.534 171.917 474.898 169.205C476.277 166.492 478.216 164.386 480.716 162.886C483.216 161.386 486.17 160.636 489.58 160.636C492.989 160.636 495.943 161.386 498.443 162.886C500.943 164.386 502.875 166.492 504.239 169.205C505.617 171.917 506.307 175.076 506.307 178.682C506.307 182.288 505.617 185.439 504.239 188.136C502.875 190.833 500.943 192.932 498.443 194.432C495.943 195.932 492.989 196.682 489.58 196.682ZM489.625 190.091C491.473 190.091 493.019 189.583 494.261 188.568C495.504 187.538 496.428 186.159 497.034 184.432C497.655 182.705 497.966 180.78 497.966 178.659C497.966 176.523 497.655 174.591 497.034 172.864C496.428 171.121 495.504 169.735 494.261 168.705C493.019 167.674 491.473 167.159 489.625 167.159C487.731 167.159 486.155 167.674 484.898 168.705C483.655 169.735 482.723 171.121 482.102 172.864C481.496 174.591 481.193 176.523 481.193 178.659C481.193 180.78 481.496 182.705 482.102 184.432C482.723 186.159 483.655 187.538 484.898 188.568C486.155 189.583 487.731 190.091 489.625 190.091ZM539.324 196L526.188 149.455H535.256L543.642 183.659H544.074L553.028 149.455H561.278L570.256 183.682H570.665L579.051 149.455H588.119L574.983 196H566.665L557.347 163.341H556.983L547.642 196H539.324ZM605.494 196.682C601.994 196.682 598.972 195.955 596.426 194.5C593.896 193.03 591.949 190.955 590.585 188.273C589.222 185.576 588.54 182.402 588.54 178.75C588.54 175.159 589.222 172.008 590.585 169.295C591.964 166.568 593.888 164.447 596.358 162.932C598.828 161.402 601.729 160.636 605.062 160.636C607.214 160.636 609.244 160.985 611.153 161.682C613.078 162.364 614.775 163.424 616.244 164.864C617.729 166.303 618.896 168.136 619.744 170.364C620.593 172.576 621.017 175.212 621.017 178.273V180.795H592.403V175.25H613.131C613.116 173.674 612.775 172.273 612.108 171.045C611.441 169.803 610.509 168.826 609.312 168.114C608.131 167.402 606.752 167.045 605.176 167.045C603.494 167.045 602.017 167.455 600.744 168.273C599.472 169.076 598.479 170.136 597.767 171.455C597.07 172.758 596.714 174.189 596.699 175.75V180.591C596.699 182.621 597.07 184.364 597.812 185.818C598.555 187.258 599.593 188.364 600.926 189.136C602.259 189.894 603.82 190.273 605.608 190.273C606.805 190.273 607.888 190.106 608.858 189.773C609.828 189.424 610.669 188.917 611.381 188.25C612.093 187.583 612.631 186.758 612.994 185.773L620.676 186.636C620.191 188.667 619.267 190.439 617.903 191.955C616.555 193.455 614.828 194.621 612.722 195.455C610.616 196.273 608.206 196.682 605.494 196.682ZM628.341 196V149.455H636.568V166.864H636.909C637.333 166.015 637.932 165.114 638.705 164.159C639.477 163.189 640.523 162.364 641.841 161.682C643.159 160.985 644.841 160.636 646.886 160.636C649.583 160.636 652.015 161.326 654.182 162.705C656.364 164.068 658.091 166.091 659.364 168.773C660.652 171.439 661.295 174.712 661.295 178.591C661.295 182.424 660.667 185.682 659.409 188.364C658.152 191.045 656.439 193.091 654.273 194.5C652.106 195.909 649.652 196.614 646.909 196.614C644.909 196.614 643.25 196.28 641.932 195.614C640.614 194.947 639.553 194.144 638.75 193.205C637.962 192.25 637.348 191.348 636.909 190.5H636.432V196H628.341ZM636.409 178.545C636.409 180.803 636.727 182.78 637.364 184.477C638.015 186.174 638.947 187.5 640.159 188.455C641.386 189.394 642.871 189.864 644.614 189.864C646.432 189.864 647.955 189.379 649.182 188.409C650.409 187.424 651.333 186.083 651.955 184.386C652.591 182.674 652.909 180.727 652.909 178.545C652.909 176.379 652.598 174.455 651.977 172.773C651.356 171.091 650.432 169.773 649.205 168.818C647.977 167.864 646.447 167.386 644.614 167.386C642.856 167.386 641.364 167.848 640.136 168.773C638.909 169.697 637.977 170.992 637.341 172.659C636.72 174.326 636.409 176.288 636.409 178.545ZM695.881 170.318L688.381 171.136C688.169 170.379 687.797 169.667 687.267 169C686.752 168.333 686.055 167.795 685.176 167.386C684.297 166.977 683.222 166.773 681.949 166.773C680.237 166.773 678.797 167.144 677.631 167.886C676.479 168.629 675.911 169.591 675.926 170.773C675.911 171.788 676.282 172.614 677.04 173.25C677.813 173.886 679.085 174.409 680.858 174.818L686.812 176.091C690.116 176.803 692.57 177.932 694.176 179.477C695.797 181.023 696.616 183.045 696.631 185.545C696.616 187.742 695.972 189.682 694.699 191.364C693.441 193.03 691.691 194.333 689.449 195.273C687.206 196.212 684.631 196.682 681.722 196.682C677.449 196.682 674.009 195.788 671.403 194C668.797 192.197 667.244 189.689 666.744 186.477L674.767 185.705C675.131 187.28 675.903 188.47 677.085 189.273C678.267 190.076 679.805 190.477 681.699 190.477C683.653 190.477 685.222 190.076 686.403 189.273C687.6 188.47 688.199 187.477 688.199 186.295C688.199 185.295 687.813 184.47 687.04 183.818C686.282 183.167 685.1 182.667 683.494 182.318L677.54 181.068C674.191 180.371 671.714 179.197 670.108 177.545C668.502 175.879 667.706 173.773 667.722 171.227C667.706 169.076 668.29 167.212 669.472 165.636C670.669 164.045 672.328 162.818 674.449 161.955C676.585 161.076 679.047 160.636 681.835 160.636C685.926 160.636 689.146 161.508 691.494 163.25C693.858 164.992 695.32 167.348 695.881 170.318ZM703.415 196V161.091H711.642V196H703.415ZM707.551 156.136C706.248 156.136 705.127 155.705 704.188 154.841C703.248 153.962 702.778 152.909 702.778 151.682C702.778 150.439 703.248 149.386 704.188 148.523C705.127 147.644 706.248 147.205 707.551 147.205C708.869 147.205 709.991 147.644 710.915 148.523C711.854 149.386 712.324 150.439 712.324 151.682C712.324 152.909 711.854 153.962 710.915 154.841C709.991 155.705 708.869 156.136 707.551 156.136ZM737.534 161.091V167.455H717.466V161.091H737.534ZM722.42 152.727H730.648V185.5C730.648 186.606 730.814 187.455 731.148 188.045C731.496 188.621 731.951 189.015 732.511 189.227C733.072 189.439 733.693 189.545 734.375 189.545C734.89 189.545 735.36 189.508 735.784 189.432C736.223 189.356 736.557 189.288 736.784 189.227L738.17 195.659C737.731 195.811 737.102 195.977 736.284 196.159C735.481 196.341 734.496 196.447 733.33 196.477C731.269 196.538 729.413 196.227 727.761 195.545C726.11 194.848 724.799 193.773 723.83 192.318C722.875 190.864 722.405 189.045 722.42 186.864V152.727ZM759.494 196.682C755.994 196.682 752.972 195.955 750.426 194.5C747.896 193.03 745.949 190.955 744.585 188.273C743.222 185.576 742.54 182.402 742.54 178.75C742.54 175.159 743.222 172.008 744.585 169.295C745.964 166.568 747.888 164.447 750.358 162.932C752.828 161.402 755.729 160.636 759.062 160.636C761.214 160.636 763.244 160.985 765.153 161.682C767.078 162.364 768.775 163.424 770.244 164.864C771.729 166.303 772.896 168.136 773.744 170.364C774.593 172.576 775.017 175.212 775.017 178.273V180.795H746.403V175.25H767.131C767.116 173.674 766.775 172.273 766.108 171.045C765.441 169.803 764.509 168.826 763.312 168.114C762.131 167.402 760.752 167.045 759.176 167.045C757.494 167.045 756.017 167.455 754.744 168.273C753.472 169.076 752.479 170.136 751.767 171.455C751.07 172.758 750.714 174.189 750.699 175.75V180.591C750.699 182.621 751.07 184.364 751.812 185.818C752.555 187.258 753.593 188.364 754.926 189.136C756.259 189.894 757.82 190.273 759.608 190.273C760.805 190.273 761.888 190.106 762.858 189.773C763.828 189.424 764.669 188.917 765.381 188.25C766.093 187.583 766.631 186.758 766.994 185.773L774.676 186.636C774.191 188.667 773.267 190.439 771.903 191.955C770.555 193.455 768.828 194.621 766.722 195.455C764.616 196.273 762.206 196.682 759.494 196.682Z" fill="white"/>
<rect x="151" y="277" width="302" height="492" rx="10" fill="#C7C7C7"/>
<rect x="501" y="277" width="302" height="492" rx="10" fill="#C7C7C7"/>
<rect x="852" y="277" width="302" height="492" rx="10" fill="#C7C7C7"/>
<rect x="1202" y="277" width="302" height="492" rx="10" fill="#C7C7C7"/>
<rect x="1080.5" y="353.5" width="431.558" height="668" rx="7.5" fill="white" stroke="black" stroke-width="5"/>
<rect x="1104.42" y="917.007" width="388.345" height="74.631" rx="10" fill="#F2F2F2"/>
<rect x="1418.79" y="930.876" width="61.422" height="47.5525" rx="10" fill="black"/>
<path d="M1464.36 954.653L1444.36 943.106V966.2L1464.36 954.653ZM1433.98 956.653H1446.36V952.653H1433.98V956.653Z" fill="white"/>
<rect x="1126.07" y="443.321" width="357.588" height="88.1236" rx="7.5" fill="white" stroke="black" stroke-width="5"/>
<path d="M1153.95 458.545V476H1151.91L1142.4 462.295H1142.23V476H1140.11V458.545H1142.16L1151.7 472.284H1151.88V458.545H1153.95ZM1157.91 476V462.909H1159.92V476H1157.91ZM1158.93 460.727C1158.54 460.727 1158.2 460.594 1157.92 460.327C1157.64 460.06 1157.5 459.739 1157.5 459.364C1157.5 458.989 1157.64 458.668 1157.92 458.401C1158.2 458.134 1158.54 458 1158.93 458C1159.33 458 1159.66 458.134 1159.94 458.401C1160.22 458.668 1160.37 458.989 1160.37 459.364C1160.37 459.739 1160.22 460.06 1159.94 460.327C1159.66 460.594 1159.33 460.727 1158.93 460.727ZM1168.92 476.273C1167.7 476.273 1166.64 475.983 1165.75 475.403C1164.87 474.824 1164.19 474.026 1163.71 473.009C1163.23 471.991 1162.99 470.83 1162.99 469.523C1162.99 468.193 1163.24 467.02 1163.73 466.003C1164.22 464.98 1164.91 464.182 1165.79 463.608C1166.67 463.028 1167.71 462.739 1168.89 462.739C1169.81 462.739 1170.64 462.909 1171.38 463.25C1172.12 463.591 1172.72 464.068 1173.19 464.682C1173.67 465.295 1173.96 466.011 1174.07 466.83H1172.06C1171.91 466.233 1171.57 465.705 1171.04 465.244C1170.52 464.778 1169.81 464.545 1168.92 464.545C1168.14 464.545 1167.45 464.75 1166.86 465.159C1166.28 465.562 1165.82 466.134 1165.49 466.872C1165.17 467.605 1165 468.466 1165 469.455C1165 470.466 1165.16 471.347 1165.48 472.097C1165.81 472.847 1166.26 473.429 1166.85 473.844C1167.44 474.259 1168.13 474.466 1168.92 474.466C1169.45 474.466 1169.92 474.375 1170.35 474.193C1170.77 474.011 1171.13 473.75 1171.43 473.409C1171.73 473.068 1171.94 472.659 1172.06 472.182H1174.07C1173.96 472.955 1173.68 473.651 1173.23 474.27C1172.79 474.884 1172.2 475.372 1171.46 475.736C1170.74 476.094 1169.89 476.273 1168.92 476.273ZM1182.5 476.273C1181.24 476.273 1180.15 475.994 1179.24 475.438C1178.33 474.875 1177.63 474.091 1177.13 473.085C1176.64 472.074 1176.4 470.898 1176.4 469.557C1176.4 468.216 1176.64 467.034 1177.13 466.011C1177.63 464.983 1178.31 464.182 1179.19 463.608C1180.08 463.028 1181.12 462.739 1182.3 462.739C1182.98 462.739 1183.65 462.852 1184.32 463.08C1184.98 463.307 1185.59 463.676 1186.13 464.188C1186.68 464.693 1187.11 465.364 1187.44 466.199C1187.76 467.034 1187.92 468.062 1187.92 469.284V470.136H1177.83V468.398H1185.88C1185.88 467.659 1185.73 467 1185.43 466.42C1185.14 465.841 1184.73 465.384 1184.19 465.048C1183.65 464.713 1183.02 464.545 1182.3 464.545C1181.5 464.545 1180.8 464.744 1180.22 465.142C1179.64 465.534 1179.19 466.045 1178.88 466.676C1178.57 467.307 1178.41 467.983 1178.41 468.705V469.864C1178.41 470.852 1178.58 471.69 1178.92 472.378C1179.27 473.06 1179.75 473.58 1180.36 473.938C1180.98 474.29 1181.69 474.466 1182.5 474.466C1183.03 474.466 1183.51 474.392 1183.93 474.244C1184.37 474.091 1184.74 473.864 1185.05 473.562C1185.36 473.256 1185.6 472.875 1185.77 472.42L1187.72 472.966C1187.51 473.625 1187.17 474.205 1186.69 474.705C1186.2 475.199 1185.61 475.585 1184.9 475.864C1184.19 476.136 1183.39 476.273 1182.5 476.273ZM1203.42 462.909V464.614H1196.64V462.909H1203.42ZM1198.62 459.773H1200.63V472.25C1200.63 472.818 1200.71 473.244 1200.88 473.528C1201.05 473.807 1201.26 473.994 1201.52 474.091C1201.79 474.182 1202.07 474.227 1202.37 474.227C1202.59 474.227 1202.77 474.216 1202.91 474.193C1203.06 474.165 1203.17 474.142 1203.25 474.125L1203.66 475.932C1203.53 475.983 1203.34 476.034 1203.09 476.085C1202.85 476.142 1202.54 476.17 1202.16 476.17C1201.6 476.17 1201.04 476.048 1200.49 475.804C1199.95 475.56 1199.5 475.188 1199.15 474.688C1198.79 474.188 1198.62 473.557 1198.62 472.795V459.773ZM1211.63 476.273C1210.45 476.273 1209.41 475.991 1208.52 475.429C1207.63 474.866 1206.94 474.08 1206.44 473.068C1205.94 472.057 1205.7 470.875 1205.7 469.523C1205.7 468.159 1205.94 466.969 1206.44 465.952C1206.94 464.935 1207.63 464.145 1208.52 463.582C1209.41 463.02 1210.45 462.739 1211.63 462.739C1212.81 462.739 1213.84 463.02 1214.73 463.582C1215.62 464.145 1216.32 464.935 1216.81 465.952C1217.31 466.969 1217.56 468.159 1217.56 469.523C1217.56 470.875 1217.31 472.057 1216.81 473.068C1216.32 474.08 1215.62 474.866 1214.73 475.429C1213.84 475.991 1212.81 476.273 1211.63 476.273ZM1211.63 474.466C1212.53 474.466 1213.26 474.236 1213.84 473.776C1214.42 473.315 1214.85 472.71 1215.13 471.96C1215.41 471.21 1215.55 470.398 1215.55 469.523C1215.55 468.648 1215.41 467.832 1215.13 467.077C1214.85 466.321 1214.42 465.71 1213.84 465.244C1213.26 464.778 1212.53 464.545 1211.63 464.545C1210.73 464.545 1209.99 464.778 1209.41 465.244C1208.83 465.71 1208.4 466.321 1208.12 467.077C1207.85 467.832 1207.71 468.648 1207.71 469.523C1207.71 470.398 1207.85 471.21 1208.12 471.96C1208.4 472.71 1208.83 473.315 1209.41 473.776C1209.99 474.236 1210.73 474.466 1211.63 474.466ZM1227.38 476V462.909H1229.32V464.955H1229.49C1229.77 464.256 1230.21 463.713 1230.81 463.327C1231.42 462.935 1232.15 462.739 1233 462.739C1233.87 462.739 1234.59 462.935 1235.16 463.327C1235.74 463.713 1236.19 464.256 1236.52 464.955H1236.65C1236.99 464.278 1237.49 463.741 1238.16 463.344C1238.83 462.94 1239.64 462.739 1240.57 462.739C1241.74 462.739 1242.7 463.105 1243.45 463.838C1244.19 464.565 1244.56 465.699 1244.56 467.239V476H1242.55V467.239C1242.55 466.273 1242.29 465.582 1241.76 465.168C1241.23 464.753 1240.61 464.545 1239.89 464.545C1238.97 464.545 1238.26 464.824 1237.75 465.381C1237.25 465.932 1236.99 466.631 1236.99 467.477V476H1234.95V467.034C1234.95 466.29 1234.71 465.69 1234.22 465.236C1233.74 464.776 1233.12 464.545 1232.36 464.545C1231.83 464.545 1231.35 464.685 1230.89 464.963C1230.44 465.241 1230.08 465.628 1229.8 466.122C1229.53 466.611 1229.39 467.176 1229.39 467.818V476H1227.38ZM1253.73 476.273C1252.47 476.273 1251.38 475.994 1250.46 475.438C1249.55 474.875 1248.85 474.091 1248.36 473.085C1247.87 472.074 1247.63 470.898 1247.63 469.557C1247.63 468.216 1247.87 467.034 1248.36 466.011C1248.85 464.983 1249.54 464.182 1250.42 463.608C1251.31 463.028 1252.34 462.739 1253.52 462.739C1254.21 462.739 1254.88 462.852 1255.54 463.08C1256.21 463.307 1256.81 463.676 1257.36 464.188C1257.9 464.693 1258.34 465.364 1258.66 466.199C1258.99 467.034 1259.15 468.062 1259.15 469.284V470.136H1249.06V468.398H1257.1C1257.1 467.659 1256.96 467 1256.66 466.42C1256.37 465.841 1255.96 465.384 1255.42 465.048C1254.88 464.713 1254.25 464.545 1253.52 464.545C1252.72 464.545 1252.03 464.744 1251.44 465.142C1250.86 465.534 1250.42 466.045 1250.11 466.676C1249.79 467.307 1249.64 467.983 1249.64 468.705V469.864C1249.64 470.852 1249.81 471.69 1250.15 472.378C1250.5 473.06 1250.98 473.58 1251.59 473.938C1252.2 474.29 1252.92 474.466 1253.73 474.466C1254.26 474.466 1254.73 474.392 1255.16 474.244C1255.59 474.091 1255.96 473.864 1256.28 473.562C1256.59 473.256 1256.83 472.875 1257 472.42L1258.94 472.966C1258.74 473.625 1258.4 474.205 1257.91 474.705C1257.43 475.199 1256.83 475.585 1256.12 475.864C1255.41 476.136 1254.61 476.273 1253.73 476.273ZM1267.7 476.273C1266.44 476.273 1265.35 475.994 1264.43 475.438C1263.52 474.875 1262.82 474.091 1262.33 473.085C1261.84 472.074 1261.59 470.898 1261.59 469.557C1261.59 468.216 1261.84 467.034 1262.33 466.011C1262.82 464.983 1263.51 464.182 1264.39 463.608C1265.28 463.028 1266.31 462.739 1267.49 462.739C1268.17 462.739 1268.85 462.852 1269.51 463.08C1270.18 463.307 1270.78 463.676 1271.33 464.188C1271.87 464.693 1272.31 465.364 1272.63 466.199C1272.96 467.034 1273.12 468.062 1273.12 469.284V470.136H1263.03V468.398H1271.07C1271.07 467.659 1270.92 467 1270.63 466.42C1270.34 465.841 1269.92 465.384 1269.38 465.048C1268.85 464.713 1268.22 464.545 1267.49 464.545C1266.69 464.545 1266 464.744 1265.41 465.142C1264.83 465.534 1264.39 466.045 1264.07 466.676C1263.76 467.307 1263.61 467.983 1263.61 468.705V469.864C1263.61 470.852 1263.78 471.69 1264.12 472.378C1264.46 473.06 1264.94 473.58 1265.56 473.938C1266.17 474.29 1266.88 474.466 1267.7 474.466C1268.23 474.466 1268.7 474.392 1269.13 474.244C1269.56 474.091 1269.93 473.864 1270.25 473.562C1270.56 473.256 1270.8 472.875 1270.97 472.42L1272.91 472.966C1272.71 473.625 1272.36 474.205 1271.88 474.705C1271.4 475.199 1270.8 475.585 1270.09 475.864C1269.38 476.136 1268.58 476.273 1267.7 476.273ZM1281.87 462.909V464.614H1275.09V462.909H1281.87ZM1277.06 459.773H1279.07V472.25C1279.07 472.818 1279.16 473.244 1279.32 473.528C1279.49 473.807 1279.71 473.994 1279.97 474.091C1280.24 474.182 1280.52 474.227 1280.81 474.227C1281.03 474.227 1281.22 474.216 1281.36 474.193C1281.5 474.165 1281.61 474.142 1281.7 474.125L1282.11 475.932C1281.97 475.983 1281.78 476.034 1281.54 476.085C1281.29 476.142 1280.98 476.17 1280.61 476.17C1280.04 476.17 1279.48 476.048 1278.94 475.804C1278.4 475.56 1277.95 475.188 1277.59 474.688C1277.24 474.188 1277.06 473.557 1277.06 472.795V459.773ZM1292.94 480.909C1292.6 480.909 1292.3 480.881 1292.03 480.824C1291.76 480.773 1291.58 480.722 1291.48 480.67L1291.99 478.898C1292.48 479.023 1292.91 479.068 1293.28 479.034C1293.66 479 1293.99 478.832 1294.28 478.531C1294.57 478.236 1294.84 477.756 1295.09 477.091L1295.46 476.068L1290.62 462.909H1292.8L1296.42 473.341H1296.55L1300.17 462.909H1302.35L1296.79 477.909C1296.54 478.585 1296.23 479.145 1295.86 479.588C1295.5 480.037 1295.07 480.369 1294.58 480.585C1294.09 480.801 1293.55 480.909 1292.94 480.909ZM1309.85 476.273C1308.67 476.273 1307.64 475.991 1306.74 475.429C1305.86 474.866 1305.16 474.08 1304.66 473.068C1304.17 472.057 1303.92 470.875 1303.92 469.523C1303.92 468.159 1304.17 466.969 1304.66 465.952C1305.16 464.935 1305.86 464.145 1306.74 463.582C1307.64 463.02 1308.67 462.739 1309.85 462.739C1311.04 462.739 1312.07 463.02 1312.96 463.582C1313.85 464.145 1314.54 464.935 1315.04 465.952C1315.54 466.969 1315.79 468.159 1315.79 469.523C1315.79 470.875 1315.54 472.057 1315.04 473.068C1314.54 474.08 1313.85 474.866 1312.96 475.429C1312.07 475.991 1311.04 476.273 1309.85 476.273ZM1309.85 474.466C1310.75 474.466 1311.49 474.236 1312.07 473.776C1312.65 473.315 1313.08 472.71 1313.36 471.96C1313.64 471.21 1313.77 470.398 1313.77 469.523C1313.77 468.648 1313.64 467.832 1313.36 467.077C1313.08 466.321 1312.65 465.71 1312.07 465.244C1311.49 464.778 1310.75 464.545 1309.85 464.545C1308.96 464.545 1308.22 464.778 1307.64 465.244C1307.06 465.71 1306.63 466.321 1306.35 467.077C1306.07 467.832 1305.93 468.648 1305.93 469.523C1305.93 470.398 1306.07 471.21 1306.35 471.96C1306.63 472.71 1307.06 473.315 1307.64 473.776C1308.22 474.236 1308.96 474.466 1309.85 474.466ZM1327.11 470.648V462.909H1329.12V476H1327.11V473.784H1326.97C1326.66 474.449 1326.19 475.014 1325.54 475.48C1324.89 475.94 1324.07 476.17 1323.08 476.17C1322.27 476.17 1321.54 475.991 1320.9 475.634C1320.27 475.27 1319.77 474.724 1319.4 473.997C1319.04 473.264 1318.86 472.341 1318.86 471.227V462.909H1320.87V471.091C1320.87 472.045 1321.13 472.807 1321.67 473.375C1322.21 473.943 1322.9 474.227 1323.73 474.227C1324.23 474.227 1324.74 474.099 1325.26 473.844C1325.78 473.588 1326.22 473.196 1326.57 472.668C1326.93 472.139 1327.11 471.466 1327.11 470.648ZM1335.46 458.545L1335.29 471.091H1333.31L1333.14 458.545H1335.46ZM1334.3 476.136C1333.88 476.136 1333.52 475.986 1333.22 475.685C1332.92 475.384 1332.77 475.023 1332.77 474.602C1332.77 474.182 1332.92 473.821 1333.22 473.52C1333.52 473.219 1333.88 473.068 1334.3 473.068C1334.72 473.068 1335.08 473.219 1335.38 473.52C1335.69 473.821 1335.84 474.182 1335.84 474.602C1335.84 474.881 1335.76 475.136 1335.62 475.369C1335.49 475.602 1335.3 475.79 1335.07 475.932C1334.84 476.068 1334.59 476.136 1334.3 476.136ZM1346.5 458.545H1349.03L1354.96 473.034H1355.16L1361.1 458.545H1363.62V476H1361.64V462.739H1361.47L1356.02 476H1354.11L1348.65 462.739H1348.48V476H1346.5V458.545ZM1368.88 480.909C1368.54 480.909 1368.23 480.881 1367.97 480.824C1367.7 480.773 1367.51 480.722 1367.41 480.67L1367.92 478.898C1368.41 479.023 1368.84 479.068 1369.22 479.034C1369.59 479 1369.93 478.832 1370.22 478.531C1370.51 478.236 1370.78 477.756 1371.03 477.091L1371.4 476.068L1366.56 462.909H1368.74L1372.36 473.341H1372.49L1376.11 462.909H1378.29L1372.73 477.909C1372.48 478.585 1372.17 479.145 1371.8 479.588C1371.43 480.037 1371 480.369 1370.51 480.585C1370.03 480.801 1369.49 480.909 1368.88 480.909ZM1389.7 468.125V476H1387.69V462.909H1389.64V464.955H1389.81C1390.11 464.29 1390.58 463.756 1391.2 463.352C1391.83 462.943 1392.64 462.739 1393.62 462.739C1394.51 462.739 1395.29 462.92 1395.95 463.284C1396.62 463.642 1397.13 464.188 1397.5 464.92C1397.87 465.648 1398.06 466.568 1398.06 467.682V476H1396.04V467.818C1396.04 466.79 1395.78 465.989 1395.24 465.415C1394.71 464.835 1393.98 464.545 1393.04 464.545C1392.4 464.545 1391.83 464.685 1391.32 464.963C1390.82 465.241 1390.43 465.648 1390.14 466.182C1389.85 466.716 1389.7 467.364 1389.7 468.125ZM1405.58 476.307C1404.75 476.307 1404 476.151 1403.33 475.838C1402.65 475.52 1402.11 475.062 1401.71 474.466C1401.32 473.864 1401.12 473.136 1401.12 472.284C1401.12 471.534 1401.27 470.926 1401.56 470.46C1401.86 469.989 1402.25 469.619 1402.75 469.352C1403.24 469.085 1403.79 468.886 1404.38 468.756C1404.98 468.619 1405.59 468.511 1406.2 468.432C1406.99 468.33 1407.64 468.253 1408.13 468.202C1408.63 468.145 1409 468.051 1409.22 467.92C1409.46 467.79 1409.57 467.562 1409.57 467.239V467.17C1409.57 466.33 1409.34 465.676 1408.88 465.21C1408.43 464.744 1407.74 464.511 1406.81 464.511C1405.85 464.511 1405.1 464.722 1404.55 465.142C1404.01 465.562 1403.62 466.011 1403.4 466.489L1401.49 465.807C1401.83 465.011 1402.29 464.392 1402.86 463.949C1403.43 463.5 1404.06 463.187 1404.73 463.011C1405.41 462.83 1406.08 462.739 1406.74 462.739C1407.16 462.739 1407.65 462.79 1408.19 462.892C1408.74 462.989 1409.27 463.19 1409.79 463.497C1410.3 463.804 1410.73 464.267 1411.07 464.886C1411.41 465.506 1411.58 466.335 1411.58 467.375V476H1409.57V474.227H1409.47C1409.33 474.511 1409.11 474.815 1408.79 475.139C1408.47 475.463 1408.05 475.739 1407.52 475.966C1406.99 476.193 1406.35 476.307 1405.58 476.307ZM1405.89 474.5C1406.69 474.5 1407.36 474.344 1407.9 474.031C1408.45 473.719 1408.87 473.315 1409.15 472.821C1409.43 472.327 1409.57 471.807 1409.57 471.261V469.42C1409.49 469.523 1409.3 469.616 1409.01 469.702C1408.73 469.781 1408.4 469.852 1408.02 469.915C1407.65 469.972 1407.29 470.023 1406.94 470.068C1406.59 470.108 1406.31 470.142 1406.1 470.17C1405.57 470.239 1405.08 470.349 1404.63 470.503C1404.18 470.651 1403.82 470.875 1403.54 471.176C1403.27 471.472 1403.13 471.875 1403.13 472.386C1403.13 473.085 1403.39 473.614 1403.9 473.972C1404.43 474.324 1405.09 474.5 1405.89 474.5ZM1415.25 476V462.909H1417.2V464.955H1417.37C1417.64 464.256 1418.08 463.713 1418.69 463.327C1419.3 462.935 1420.03 462.739 1420.88 462.739C1421.74 462.739 1422.46 462.935 1423.04 463.327C1423.62 463.713 1424.07 464.256 1424.39 464.955H1424.53C1424.86 464.278 1425.37 463.741 1426.04 463.344C1426.71 462.94 1427.51 462.739 1428.45 462.739C1429.62 462.739 1430.58 463.105 1431.32 463.838C1432.06 464.565 1432.44 465.699 1432.44 467.239V476H1430.43V467.239C1430.43 466.273 1430.16 465.582 1429.63 465.168C1429.1 464.753 1428.48 464.545 1427.77 464.545C1426.85 464.545 1426.13 464.824 1425.63 465.381C1425.12 465.932 1424.87 466.631 1424.87 467.477V476H1422.82V467.034C1422.82 466.29 1422.58 465.69 1422.1 465.236C1421.62 464.776 1420.99 464.545 1420.23 464.545C1419.71 464.545 1419.22 464.685 1418.77 464.963C1418.32 465.241 1417.95 465.628 1417.68 466.122C1417.4 466.611 1417.27 467.176 1417.27 467.818V476H1415.25ZM1441.6 476.273C1440.34 476.273 1439.25 475.994 1438.34 475.438C1437.43 474.875 1436.73 474.091 1436.23 473.085C1435.75 472.074 1435.5 470.898 1435.5 469.557C1435.5 468.216 1435.75 467.034 1436.23 466.011C1436.73 464.983 1437.42 464.182 1438.3 463.608C1439.18 463.028 1440.22 462.739 1441.4 462.739C1442.08 462.739 1442.75 462.852 1443.42 463.08C1444.08 463.307 1444.69 463.676 1445.23 464.188C1445.78 464.693 1446.21 465.364 1446.54 466.199C1446.86 467.034 1447.02 468.062 1447.02 469.284V470.136H1436.93V468.398H1444.98C1444.98 467.659 1444.83 467 1444.53 466.42C1444.25 465.841 1443.83 465.384 1443.29 465.048C1442.76 464.713 1442.13 464.545 1441.4 464.545C1440.6 464.545 1439.9 464.744 1439.32 465.142C1438.74 465.534 1438.29 466.045 1437.98 466.676C1437.67 467.307 1437.51 467.983 1437.51 468.705V469.864C1437.51 470.852 1437.68 471.69 1438.02 472.378C1438.37 473.06 1438.85 473.58 1439.46 473.938C1440.08 474.29 1440.79 474.466 1441.6 474.466C1442.13 474.466 1442.61 474.392 1443.03 474.244C1443.47 474.091 1443.84 473.864 1444.15 473.562C1444.46 473.256 1444.71 472.875 1444.88 472.42L1446.82 472.966C1446.61 473.625 1446.27 474.205 1445.79 474.705C1445.3 475.199 1444.71 475.585 1444 475.864C1443.29 476.136 1442.49 476.273 1441.6 476.273ZM1139.84 505V491.909H1141.85V505H1139.84ZM1140.86 489.727C1140.47 489.727 1140.13 489.594 1139.85 489.327C1139.57 489.06 1139.43 488.739 1139.43 488.364C1139.43 487.989 1139.57 487.668 1139.85 487.401C1140.13 487.134 1140.47 487 1140.86 487C1141.26 487 1141.59 487.134 1141.87 487.401C1142.15 487.668 1142.3 487.989 1142.3 488.364C1142.3 488.739 1142.15 489.06 1141.87 489.327C1141.59 489.594 1141.26 489.727 1140.86 489.727ZM1154.81 494.841L1153 495.352C1152.89 495.051 1152.72 494.759 1152.5 494.474C1152.28 494.185 1151.99 493.946 1151.61 493.759C1151.24 493.571 1150.76 493.477 1150.17 493.477C1149.37 493.477 1148.7 493.662 1148.17 494.031C1147.64 494.395 1147.38 494.858 1147.38 495.42C1147.38 495.92 1147.56 496.315 1147.92 496.605C1148.29 496.895 1148.85 497.136 1149.63 497.33L1151.57 497.807C1152.74 498.091 1153.61 498.526 1154.19 499.111C1154.76 499.69 1155.05 500.437 1155.05 501.352C1155.05 502.102 1154.83 502.773 1154.4 503.364C1153.97 503.955 1153.38 504.42 1152.61 504.761C1151.84 505.102 1150.95 505.273 1149.93 505.273C1148.6 505.273 1147.49 504.983 1146.62 504.403C1145.74 503.824 1145.19 502.977 1144.96 501.864L1146.87 501.386C1147.05 502.091 1147.39 502.619 1147.9 502.972C1148.41 503.324 1149.08 503.5 1149.9 503.5C1150.84 503.5 1151.58 503.301 1152.13 502.903C1152.69 502.5 1152.97 502.017 1152.97 501.455C1152.97 501 1152.81 500.619 1152.49 500.312C1152.17 500 1151.68 499.767 1151.02 499.614L1148.84 499.102C1147.64 498.818 1146.76 498.378 1146.2 497.781C1145.64 497.179 1145.37 496.426 1145.37 495.523C1145.37 494.784 1145.57 494.131 1145.99 493.562C1146.41 492.994 1146.98 492.548 1147.7 492.224C1148.43 491.901 1149.25 491.739 1150.17 491.739C1151.47 491.739 1152.49 492.023 1153.22 492.591C1153.97 493.159 1154.5 493.909 1154.81 494.841ZM1165.81 507.182V485.364H1170.86V487.034H1167.72V505.511H1170.86V507.182H1165.81ZM1174.51 505H1172.29L1178.7 487.545H1180.88L1187.29 505H1185.08L1179.86 490.307H1179.73L1174.51 505ZM1175.33 498.182H1184.26V500.057H1175.33V498.182ZM1189.74 505V491.909H1191.68V493.886H1191.82C1192.06 493.239 1192.49 492.713 1193.11 492.31C1193.74 491.906 1194.44 491.705 1195.23 491.705C1195.38 491.705 1195.56 491.707 1195.78 491.713C1196 491.719 1196.17 491.727 1196.28 491.739V493.784C1196.22 493.767 1196.06 493.741 1195.82 493.707C1195.58 493.668 1195.32 493.648 1195.06 493.648C1194.42 493.648 1193.85 493.781 1193.35 494.048C1192.86 494.31 1192.47 494.673 1192.18 495.139C1191.89 495.599 1191.75 496.125 1191.75 496.716V505H1189.74ZM1205.18 491.909V493.614H1198.4V491.909H1205.18ZM1200.38 488.773H1202.39V501.25C1202.39 501.818 1202.47 502.244 1202.63 502.528C1202.8 502.807 1203.02 502.994 1203.28 503.091C1203.55 503.182 1203.83 503.227 1204.13 503.227C1204.35 503.227 1204.53 503.216 1204.67 503.193C1204.81 503.165 1204.93 503.142 1205.01 503.125L1205.42 504.932C1205.28 504.983 1205.09 505.034 1204.85 505.085C1204.61 505.142 1204.3 505.17 1203.92 505.17C1203.35 505.17 1202.8 505.048 1202.25 504.804C1201.71 504.56 1201.26 504.188 1200.9 503.688C1200.55 503.188 1200.38 502.557 1200.38 501.795V488.773ZM1208.21 505V491.909H1210.22V505H1208.21ZM1209.23 489.727C1208.84 489.727 1208.5 489.594 1208.22 489.327C1207.94 489.06 1207.8 488.739 1207.8 488.364C1207.8 487.989 1207.94 487.668 1208.22 487.401C1208.5 487.134 1208.84 487 1209.23 487C1209.62 487 1209.96 487.134 1210.24 487.401C1210.52 487.668 1210.66 487.989 1210.66 488.364C1210.66 488.739 1210.52 489.06 1210.24 489.327C1209.96 489.594 1209.62 489.727 1209.23 489.727ZM1223.18 494.841L1221.37 495.352C1221.26 495.051 1221.09 494.759 1220.87 494.474C1220.65 494.185 1220.36 493.946 1219.98 493.759C1219.61 493.571 1219.12 493.477 1218.54 493.477C1217.74 493.477 1217.07 493.662 1216.54 494.031C1216.01 494.395 1215.74 494.858 1215.74 495.42C1215.74 495.92 1215.93 496.315 1216.29 496.605C1216.65 496.895 1217.22 497.136 1217.99 497.33L1219.94 497.807C1221.11 498.091 1221.98 498.526 1222.55 499.111C1223.13 499.69 1223.41 500.437 1223.41 501.352C1223.41 502.102 1223.2 502.773 1222.77 503.364C1222.34 503.955 1221.74 504.42 1220.98 504.761C1220.21 505.102 1219.32 505.273 1218.3 505.273C1216.97 505.273 1215.86 504.983 1214.99 504.403C1214.11 503.824 1213.56 502.977 1213.32 501.864L1215.23 501.386C1215.41 502.091 1215.76 502.619 1216.26 502.972C1216.78 503.324 1217.44 503.5 1218.27 503.5C1219.2 503.5 1219.95 503.301 1220.5 502.903C1221.06 502.5 1221.34 502.017 1221.34 501.455C1221.34 501 1221.18 500.619 1220.86 500.312C1220.54 500 1220.05 499.767 1219.39 499.614L1217.21 499.102C1216.01 498.818 1215.13 498.378 1214.57 497.781C1214.01 497.179 1213.73 496.426 1213.73 495.523C1213.73 494.784 1213.94 494.131 1214.36 493.562C1214.78 492.994 1215.35 492.548 1216.07 492.224C1216.8 491.901 1217.62 491.739 1218.54 491.739C1219.84 491.739 1220.85 492.023 1221.59 492.591C1222.34 493.159 1222.86 493.909 1223.18 494.841ZM1232.14 491.909V493.614H1225.35V491.909H1232.14ZM1227.33 488.773H1229.34V501.25C1229.34 501.818 1229.42 502.244 1229.59 502.528C1229.76 502.807 1229.97 502.994 1230.24 503.091C1230.5 503.182 1230.78 503.227 1231.08 503.227C1231.3 503.227 1231.48 503.216 1231.62 503.193C1231.77 503.165 1231.88 503.142 1231.97 503.125L1232.37 504.932C1232.24 504.983 1232.05 505.034 1231.8 505.085C1231.56 505.142 1231.25 505.17 1230.87 505.17C1230.31 505.17 1229.75 505.048 1229.2 504.804C1228.66 504.56 1228.22 504.188 1227.86 503.688C1227.5 503.188 1227.33 502.557 1227.33 501.795V488.773ZM1239.18 486.727V508.545H1234.14V506.875H1237.27V488.398H1234.14V486.727H1239.18ZM1246.86 502.614L1246.72 503.534C1246.62 504.182 1246.48 504.875 1246.28 505.614C1246.08 506.352 1245.88 507.048 1245.67 507.702C1245.46 508.355 1245.29 508.875 1245.15 509.261H1243.62C1243.69 508.898 1243.79 508.418 1243.91 507.821C1244.03 507.224 1244.15 506.557 1244.27 505.818C1244.39 505.085 1244.49 504.335 1244.57 503.568L1244.67 502.614H1246.86ZM1259.34 497.125V505H1257.33V487.545H1259.34V493.955H1259.51C1259.82 493.278 1260.28 492.741 1260.9 492.344C1261.51 491.94 1262.34 491.739 1263.37 491.739C1264.26 491.739 1265.04 491.918 1265.71 492.276C1266.38 492.628 1266.9 493.17 1267.27 493.903C1267.65 494.631 1267.83 495.557 1267.83 496.682V505H1265.82V496.818C1265.82 495.778 1265.55 494.974 1265.01 494.406C1264.48 493.832 1263.74 493.545 1262.79 493.545C1262.13 493.545 1261.54 493.685 1261.01 493.963C1260.5 494.241 1260.09 494.648 1259.79 495.182C1259.49 495.716 1259.34 496.364 1259.34 497.125ZM1276.83 505.273C1275.65 505.273 1274.61 504.991 1273.72 504.429C1272.83 503.866 1272.14 503.08 1271.64 502.068C1271.15 501.057 1270.9 499.875 1270.9 498.523C1270.9 497.159 1271.15 495.969 1271.64 494.952C1272.14 493.935 1272.83 493.145 1273.72 492.582C1274.61 492.02 1275.65 491.739 1276.83 491.739C1278.01 491.739 1279.05 492.02 1279.93 492.582C1280.83 493.145 1281.52 493.935 1282.01 494.952C1282.51 495.969 1282.76 497.159 1282.76 498.523C1282.76 499.875 1282.51 501.057 1282.01 502.068C1281.52 503.08 1280.83 503.866 1279.93 504.429C1279.05 504.991 1278.01 505.273 1276.83 505.273ZM1276.83 503.466C1277.73 503.466 1278.47 503.236 1279.05 502.776C1279.63 502.315 1280.06 501.71 1280.33 500.96C1280.61 500.21 1280.75 499.398 1280.75 498.523C1280.75 497.648 1280.61 496.832 1280.33 496.077C1280.06 495.321 1279.63 494.71 1279.05 494.244C1278.47 493.778 1277.73 493.545 1276.83 493.545C1275.93 493.545 1275.19 493.778 1274.62 494.244C1274.04 494.71 1273.61 495.321 1273.33 496.077C1273.05 496.832 1272.91 497.648 1272.91 498.523C1272.91 499.398 1273.05 500.21 1273.33 500.96C1273.61 501.71 1274.04 502.315 1274.62 502.776C1275.19 503.236 1275.93 503.466 1276.83 503.466ZM1288.35 505L1284.37 491.909H1286.48L1289.31 501.932H1289.44L1292.24 491.909H1294.39L1297.15 501.898H1297.29L1300.12 491.909H1302.23L1298.24 505H1296.26L1293.4 494.943H1293.19L1290.33 505H1288.35ZM1316.96 505.273C1315.73 505.273 1314.67 504.983 1313.79 504.403C1312.9 503.824 1312.22 503.026 1311.74 502.009C1311.26 500.991 1311.02 499.83 1311.02 498.523C1311.02 497.193 1311.27 496.02 1311.76 495.003C1312.25 493.98 1312.94 493.182 1313.82 492.608C1314.71 492.028 1315.74 491.739 1316.92 491.739C1317.84 491.739 1318.67 491.909 1319.41 492.25C1320.15 492.591 1320.75 493.068 1321.23 493.682C1321.7 494.295 1321.99 495.011 1322.1 495.83H1320.09C1319.94 495.233 1319.6 494.705 1319.07 494.244C1318.55 493.778 1317.84 493.545 1316.96 493.545C1316.17 493.545 1315.48 493.75 1314.89 494.159C1314.31 494.562 1313.85 495.134 1313.52 495.872C1313.2 496.605 1313.04 497.466 1313.04 498.455C1313.04 499.466 1313.19 500.347 1313.51 501.097C1313.84 501.847 1314.29 502.429 1314.88 502.844C1315.47 503.259 1316.16 503.466 1316.96 503.466C1317.48 503.466 1317.95 503.375 1318.38 503.193C1318.81 503.011 1319.17 502.75 1319.46 502.409C1319.76 502.068 1319.97 501.659 1320.09 501.182H1322.1C1321.99 501.955 1321.71 502.651 1321.26 503.27C1320.82 503.884 1320.23 504.372 1319.5 504.736C1318.77 505.094 1317.92 505.273 1316.96 505.273ZM1328.9 505.307C1328.07 505.307 1327.31 505.151 1326.64 504.838C1325.96 504.52 1325.42 504.062 1325.03 503.466C1324.63 502.864 1324.43 502.136 1324.43 501.284C1324.43 500.534 1324.58 499.926 1324.87 499.46C1325.17 498.989 1325.56 498.619 1326.06 498.352C1326.55 498.085 1327.1 497.886 1327.69 497.756C1328.3 497.619 1328.9 497.511 1329.51 497.432C1330.31 497.33 1330.95 497.253 1331.44 497.202C1331.94 497.145 1332.31 497.051 1332.54 496.92C1332.77 496.79 1332.88 496.562 1332.88 496.239V496.17C1332.88 495.33 1332.65 494.676 1332.19 494.21C1331.74 493.744 1331.05 493.511 1330.12 493.511C1329.16 493.511 1328.41 493.722 1327.87 494.142C1327.32 494.562 1326.94 495.011 1326.71 495.489L1324.81 494.807C1325.15 494.011 1325.6 493.392 1326.17 492.949C1326.74 492.5 1327.37 492.187 1328.04 492.011C1328.73 491.83 1329.4 491.739 1330.06 491.739C1330.48 491.739 1330.96 491.79 1331.5 491.892C1332.06 491.989 1332.59 492.19 1333.1 492.497C1333.62 492.804 1334.04 493.267 1334.38 493.886C1334.73 494.506 1334.9 495.335 1334.9 496.375V505H1332.88V503.227H1332.78C1332.65 503.511 1332.42 503.815 1332.1 504.139C1331.78 504.463 1331.36 504.739 1330.83 504.966C1330.3 505.193 1329.66 505.307 1328.9 505.307ZM1329.2 503.5C1330 503.5 1330.67 503.344 1331.21 503.031C1331.77 502.719 1332.18 502.315 1332.46 501.821C1332.74 501.327 1332.88 500.807 1332.88 500.261V498.42C1332.8 498.523 1332.61 498.616 1332.32 498.702C1332.04 498.781 1331.71 498.852 1331.33 498.915C1330.96 498.972 1330.6 499.023 1330.25 499.068C1329.9 499.108 1329.62 499.142 1329.41 499.17C1328.88 499.239 1328.4 499.349 1327.94 499.503C1327.49 499.651 1327.13 499.875 1326.85 500.176C1326.58 500.472 1326.44 500.875 1326.44 501.386C1326.44 502.085 1326.7 502.614 1327.22 502.972C1327.74 503.324 1328.4 503.5 1329.2 503.5ZM1340.58 497.125V505H1338.57V491.909H1340.51V493.955H1340.68C1340.99 493.29 1341.45 492.756 1342.08 492.352C1342.7 491.943 1343.51 491.739 1344.5 491.739C1345.39 491.739 1346.16 491.92 1346.83 492.284C1347.49 492.642 1348.01 493.188 1348.38 493.92C1348.75 494.648 1348.93 495.568 1348.93 496.682V505H1346.92V496.818C1346.92 495.79 1346.65 494.989 1346.12 494.415C1345.58 493.835 1344.85 493.545 1343.92 493.545C1343.28 493.545 1342.7 493.685 1342.2 493.963C1341.7 494.241 1341.3 494.648 1341.01 495.182C1340.72 495.716 1340.58 496.364 1340.58 497.125ZM1361.74 487.545V505H1359.63V487.545H1361.74ZM1374.47 497.125V505H1372.46V487.545H1374.47V493.955H1374.64C1374.95 493.278 1375.41 492.741 1376.02 492.344C1376.64 491.94 1377.46 491.739 1378.49 491.739C1379.38 491.739 1380.17 491.918 1380.84 492.276C1381.51 492.628 1382.03 493.17 1382.4 493.903C1382.77 494.631 1382.96 495.557 1382.96 496.682V505H1380.95V496.818C1380.95 495.778 1380.68 494.974 1380.14 494.406C1379.6 493.832 1378.86 493.545 1377.91 493.545C1377.25 493.545 1376.66 493.685 1376.14 493.963C1375.62 494.241 1375.21 494.648 1374.91 495.182C1374.62 495.716 1374.47 496.364 1374.47 497.125ZM1392.13 505.273C1390.87 505.273 1389.78 504.994 1388.86 504.438C1387.95 503.875 1387.25 503.091 1386.76 502.085C1386.27 501.074 1386.02 499.898 1386.02 498.557C1386.02 497.216 1386.27 496.034 1386.76 495.011C1387.25 493.983 1387.94 493.182 1388.82 492.608C1389.71 492.028 1390.74 491.739 1391.92 491.739C1392.6 491.739 1393.28 491.852 1393.94 492.08C1394.61 492.307 1395.21 492.676 1395.76 493.188C1396.3 493.693 1396.74 494.364 1397.06 495.199C1397.38 496.034 1397.55 497.062 1397.55 498.284V499.136H1387.46V497.398H1395.5C1395.5 496.659 1395.35 496 1395.06 495.42C1394.77 494.841 1394.35 494.384 1393.81 494.048C1393.28 493.713 1392.65 493.545 1391.92 493.545C1391.12 493.545 1390.43 493.744 1389.84 494.142C1389.26 494.534 1388.82 495.045 1388.5 495.676C1388.19 496.307 1388.04 496.983 1388.04 497.705V498.864C1388.04 499.852 1388.21 500.69 1388.55 501.378C1388.89 502.06 1389.37 502.58 1389.99 502.938C1390.6 503.29 1391.31 503.466 1392.13 503.466C1392.65 503.466 1393.13 503.392 1393.56 503.244C1393.99 503.091 1394.36 502.864 1394.67 502.562C1394.99 502.256 1395.23 501.875 1395.4 501.42L1397.34 501.966C1397.14 502.625 1396.79 503.205 1396.31 503.705C1395.83 504.199 1395.23 504.585 1394.52 504.864C1393.81 505.136 1393.01 505.273 1392.13 505.273ZM1402.62 487.545V505H1400.61V487.545H1402.62ZM1406.3 509.909V491.909H1408.25V493.989H1408.48C1408.63 493.761 1408.84 493.472 1409.1 493.119C1409.36 492.761 1409.75 492.443 1410.24 492.165C1410.74 491.881 1411.42 491.739 1412.27 491.739C1413.37 491.739 1414.34 492.014 1415.18 492.565C1416.02 493.116 1416.68 493.898 1417.15 494.909C1417.62 495.92 1417.86 497.114 1417.86 498.489C1417.86 499.875 1417.62 501.077 1417.15 502.094C1416.68 503.105 1416.03 503.889 1415.19 504.446C1414.36 504.997 1413.39 505.273 1412.3 505.273C1411.46 505.273 1410.79 505.134 1410.28 504.855C1409.78 504.571 1409.39 504.25 1409.11 503.892C1408.84 503.528 1408.63 503.227 1408.48 502.989H1408.31V509.909H1406.3ZM1408.28 498.455C1408.28 499.443 1408.42 500.315 1408.71 501.071C1409 501.821 1409.43 502.409 1409.98 502.835C1410.54 503.256 1411.22 503.466 1412.03 503.466C1412.87 503.466 1413.57 503.244 1414.13 502.801C1414.7 502.352 1415.13 501.75 1415.41 500.994C1415.7 500.233 1415.85 499.386 1415.85 498.455C1415.85 497.534 1415.71 496.705 1415.42 495.966C1415.14 495.222 1414.72 494.634 1414.15 494.202C1413.59 493.764 1412.88 493.545 1412.03 493.545C1411.21 493.545 1410.52 493.753 1409.97 494.168C1409.41 494.577 1408.99 495.151 1408.71 495.889C1408.42 496.622 1408.28 497.477 1408.28 498.455ZM1423.55 500.091V499.989C1423.56 498.903 1423.68 498.04 1423.89 497.398C1424.11 496.756 1424.42 496.236 1424.81 495.838C1425.21 495.44 1425.69 495.074 1426.25 494.739C1426.58 494.534 1426.88 494.293 1427.15 494.014C1427.42 493.73 1427.63 493.403 1427.78 493.034C1427.94 492.665 1428.02 492.256 1428.02 491.807C1428.02 491.25 1427.89 490.767 1427.63 490.358C1427.36 489.949 1427.01 489.634 1426.58 489.412C1426.14 489.19 1425.65 489.08 1425.12 489.08C1424.65 489.08 1424.21 489.176 1423.77 489.369C1423.34 489.562 1422.98 489.866 1422.69 490.281C1422.4 490.696 1422.23 491.239 1422.19 491.909H1420.04C1420.09 490.943 1420.34 490.116 1420.79 489.429C1421.25 488.741 1421.86 488.216 1422.61 487.852C1423.36 487.489 1424.2 487.307 1425.12 487.307C1426.12 487.307 1426.99 487.506 1427.73 487.903C1428.47 488.301 1429.05 488.847 1429.45 489.54C1429.86 490.233 1430.06 491.023 1430.06 491.909C1430.06 492.534 1429.97 493.099 1429.77 493.605C1429.59 494.111 1429.31 494.562 1428.96 494.96C1428.6 495.358 1428.18 495.71 1427.68 496.017C1427.18 496.33 1426.78 496.659 1426.48 497.006C1426.17 497.347 1425.96 497.753 1425.82 498.224C1425.68 498.696 1425.61 499.284 1425.6 499.989V500.091H1423.55ZM1424.64 505.136C1424.22 505.136 1423.86 504.986 1423.56 504.685C1423.26 504.384 1423.11 504.023 1423.11 503.602C1423.11 503.182 1423.26 502.821 1423.56 502.52C1423.86 502.219 1424.22 502.068 1424.64 502.068C1425.06 502.068 1425.42 502.219 1425.73 502.52C1426.03 502.821 1426.18 503.182 1426.18 503.602C1426.18 503.881 1426.11 504.136 1425.96 504.369C1425.83 504.602 1425.64 504.79 1425.41 504.932C1425.18 505.068 1424.93 505.136 1424.64 505.136Z" fill="black"/>
<path d="M1247.09 368.056C1243.11 368.362 1238.48 369.932 1234.94 372.154C1232.63 373.602 1230.15 375.784 1228.22 378.057C1226.03 380.647 1224.05 384.409 1223.04 387.936C1221.81 392.136 1221.67 396.857 1222.62 401.302C1223.47 405.349 1225.45 409.458 1228.16 412.812C1229.12 414.005 1231.13 415.983 1232.38 416.972C1238.71 421.957 1246.87 423.986 1254.75 422.548C1260.28 421.529 1265.32 418.888 1269.31 414.912C1272.61 411.629 1274.94 407.735 1276.28 403.249C1277.17 400.303 1277.43 398.233 1277.34 394.736C1277.23 390.25 1276.45 387.029 1274.54 383.246C1270.42 375.08 1262.75 369.554 1253.66 368.209C1252.38 368.025 1248.62 367.933 1247.09 368.056ZM1253.4 369.371C1259.2 370.227 1264.36 372.786 1268.43 376.823C1272.57 380.922 1275.14 386.111 1276.05 392.167C1276.23 393.38 1276.23 397.458 1276.06 398.743C1275.39 403.422 1273.67 407.602 1270.88 411.313C1269.73 412.832 1267.25 415.34 1265.81 416.411C1261.85 419.367 1257.03 421.253 1252.37 421.682C1247.14 422.161 1241.97 421.162 1237.44 418.817C1235.07 417.573 1233.16 416.197 1231.19 414.29C1226.95 410.192 1224.35 405.125 1223.41 399.151C1223.15 397.519 1223.15 393.462 1223.41 391.861C1224.57 384.623 1228.08 378.689 1233.71 374.468C1237.88 371.339 1242.55 369.616 1248.11 369.136C1249.1 369.055 1252.13 369.187 1253.4 369.371Z" fill="black"/>
<path d="M1234.1 376.304C1233.63 376.354 1233.48 376.405 1233.46 376.538C1233.41 376.752 1233.62 376.844 1234.58 377.068C1236.11 377.415 1237.4 378.393 1238.05 379.709C1238.35 380.31 1238.39 380.524 1238.49 381.686C1238.54 382.4 1238.61 387.875 1238.66 393.849L1238.74 404.707L1238.97 405.288C1239.62 406.97 1241.12 408.336 1242.79 408.765C1243.15 408.866 1244.3 408.938 1246.14 408.989L1248.94 409.06V411.181V413.301L1248.35 413.342C1247.69 413.403 1247.4 413.648 1247.4 414.148C1247.4 414.678 1247.55 414.698 1251.04 414.698C1254.59 414.698 1254.68 414.688 1254.68 414.086C1254.68 413.607 1254.3 413.322 1253.64 413.322H1253.14L1253.16 411.201L1253.2 409.091L1256.17 408.979C1259.49 408.856 1259.7 408.816 1260.9 408.03C1262.18 407.225 1263.19 405.655 1263.41 404.197C1263.53 403.31 1263.54 398.029 1263.42 397.835C1263.35 397.713 1263.08 397.703 1261.98 397.764C1260.91 397.815 1260.64 397.805 1260.64 397.703C1260.64 397.499 1260.75 397.377 1261.26 397.04C1262.21 396.398 1262.92 395.338 1263.27 394.084C1263.45 393.38 1263.58 390.322 1263.51 388.466C1263.45 387.029 1263.36 386.866 1262.69 386.957C1262.5 386.988 1261.95 387.039 1261.49 387.08C1260.5 387.151 1260.42 387.069 1261.02 386.57C1262.27 385.54 1262.83 384.745 1263.27 383.45C1263.42 382.971 1263.45 382.4 1263.49 379.658C1263.52 376.589 1263.52 376.416 1263.34 376.344C1263.23 376.293 1261.75 376.263 1260.02 376.273C1257.13 376.273 1256.84 376.293 1256.17 376.497C1254.71 376.936 1253.38 378.098 1252.64 379.556L1252.22 380.392V385.866C1252.22 388.884 1252.19 392.83 1252.15 394.634L1252.09 397.927H1250.97H1249.84L1249.91 397.285C1249.94 396.938 1249.98 393.207 1249.99 389.007C1250.01 380.82 1250 380.555 1249.5 379.586C1248.66 377.925 1247.06 376.64 1245.57 376.416C1244.86 376.314 1234.96 376.212 1234.1 376.304ZM1244.88 379.311C1245.74 379.678 1245.78 381.228 1244.93 381.666C1244.32 381.982 1243.53 381.768 1243.24 381.207C1243.06 380.861 1243.03 380.065 1243.2 379.77C1243.34 379.484 1243.91 379.168 1244.24 379.168C1244.4 379.168 1244.69 379.229 1244.88 379.311ZM1251.67 409.315C1251.77 409.692 1251.61 413.006 1251.49 413.23C1251.43 413.352 1251.28 413.424 1251.09 413.424C1250.45 413.424 1250.47 413.495 1250.47 411.171V409.04H1251.04C1251.56 409.04 1251.6 409.06 1251.67 409.315Z" fill="black"/>
<path d="M1324.47 384.062C1322.26 384.409 1320.41 385.347 1318.84 386.906C1317.52 388.232 1316.67 389.72 1316.31 391.392C1316.12 392.3 1316.13 394.186 1316.34 395.154C1317.04 398.59 1319.83 401.455 1323.35 402.393C1324.18 402.607 1324.57 402.648 1325.82 402.658C1327.5 402.668 1328.34 402.525 1329.89 401.934L1330.81 401.587L1331.63 402.413L1332.44 403.239L1333.99 403.208L1335.54 403.178L1334.18 401.72L1332.8 400.252L1333.45 399.548C1334.18 398.753 1334.8 397.774 1335.19 396.796C1336.08 394.604 1336.1 391.922 1335.24 389.894C1334.12 387.212 1331.48 384.979 1328.57 384.256C1327.6 384.021 1325.41 383.919 1324.47 384.062ZM1328.18 386.815C1329.42 387.171 1330.29 387.671 1331.27 388.65C1331.98 389.343 1332.24 389.69 1332.58 390.383C1333.53 392.3 1333.51 394.542 1332.53 396.398C1332.18 397.071 1331.22 398.335 1331.07 398.335C1331.01 398.335 1330.37 397.693 1329.62 396.908L1328.26 395.48H1326.67H1325.08L1326.34 396.816C1327.04 397.55 1327.92 398.488 1328.3 398.896L1329 399.64L1328.15 399.874C1327.47 400.068 1327.06 400.119 1326.03 400.119C1324.51 400.119 1323.8 399.956 1322.54 399.334C1321.84 398.987 1321.48 398.722 1320.74 397.978C1319.68 396.938 1319.25 396.214 1318.94 395.011C1318.54 393.482 1318.75 391.616 1319.46 390.291C1320.47 388.405 1322.42 386.998 1324.57 386.611C1325.37 386.458 1327.32 386.57 1328.18 386.815Z" fill="black"/>
<path d="M1303.85 393.186V402.209H1305.08H1306.32L1306.34 399.171L1306.37 396.143L1308.83 399.171L1311.3 402.199H1312.82C1314.27 402.209 1314.34 402.199 1314.2 402.026C1314.12 401.934 1312.97 400.527 1311.65 398.916L1309.27 395.97L1309.83 395.399C1310.46 394.736 1313.63 391.392 1314.01 390.964L1314.26 390.689L1312.67 390.699H1311.09L1308.73 393.197L1306.37 395.684L1306.34 389.924L1306.32 384.164H1305.08H1303.85V393.186Z" fill="black"/>
<path d="M1285.38 393.339V402.209H1286.56H1287.74V393.339V384.47H1286.56H1285.38V393.339Z" fill="black"/>
<path d="M1296.11 390.546C1295.43 390.76 1294.88 391.117 1294.08 391.892L1293.38 392.554V391.627V390.689H1292.15H1290.92V396.449V402.209H1292.14H1293.37L1293.4 398.559L1293.43 394.92L1293.7 394.359C1294.04 393.635 1294.51 393.105 1295.12 392.748C1295.51 392.524 1295.71 392.473 1296.31 392.473C1297.19 392.473 1297.71 392.718 1298.16 393.329L1298.46 393.768L1298.49 397.988L1298.53 402.209H1299.76H1300.99L1300.96 397.642C1300.93 393.136 1300.93 393.074 1300.69 392.575C1300.36 391.871 1299.54 391.066 1298.8 390.74C1298.02 390.393 1296.85 390.311 1296.11 390.546Z" fill="black"/>
<path d="M1355.62 390.536C1354.52 390.77 1353.68 391.26 1352.77 392.167C1351.48 393.441 1350.97 394.665 1350.97 396.449C1350.97 398.182 1351.54 399.62 1352.71 400.772C1353.97 402.026 1355.55 402.597 1357.43 402.484C1359.23 402.382 1360.65 401.761 1361.84 400.547L1362.38 399.987L1361.49 399.314L1360.59 398.641L1360.11 399.089C1358.62 400.476 1356.38 400.649 1354.71 399.507C1354.05 399.059 1353.67 398.519 1353.36 397.632L1353.14 396.959L1358.08 396.928L1363.04 396.908L1362.97 396.011C1362.84 394.41 1362.18 393.044 1361.01 391.973C1359.55 390.617 1357.61 390.108 1355.62 390.536ZM1358.05 392.789C1358.74 392.993 1359.37 393.411 1359.83 393.982C1360.17 394.39 1360.41 394.787 1360.41 394.909C1360.41 394.94 1358.84 394.971 1356.92 394.971C1355 394.971 1353.43 394.95 1353.43 394.92C1353.43 394.757 1354.16 393.757 1354.46 393.513C1355.42 392.697 1356.81 392.422 1358.05 392.789Z" fill="black"/>
<path d="M1371.01 390.566C1370.27 390.831 1369.81 391.219 1369.14 392.147L1368.57 392.932L1368.54 391.81L1368.51 390.689H1367.34H1366.16V396.449V402.209H1367.39H1368.63V398.763C1368.63 394.726 1368.65 394.634 1369.5 393.778C1370.14 393.146 1370.83 392.901 1371.83 392.952L1372.45 392.983L1372.81 391.78C1373.01 391.117 1373.14 390.556 1373.11 390.526C1373.08 390.495 1372.72 390.454 1372.3 390.424C1371.74 390.383 1371.42 390.424 1371.01 390.566Z" fill="black"/>
<path d="M1338.45 394.461C1338.45 396.806 1338.49 398.427 1338.56 398.763C1338.73 399.589 1339.23 400.507 1339.81 401.077C1340.88 402.128 1341.7 402.444 1343.37 402.454C1344.37 402.464 1344.67 402.423 1345.25 402.219C1346.62 401.75 1347.75 400.629 1348.22 399.253C1348.43 398.62 1348.44 398.396 1348.49 394.634L1348.52 390.689H1347.28H1346.04V394.237C1346.04 398.304 1346 398.559 1345.31 399.304C1344.78 399.874 1344.11 400.109 1343.23 400.048C1342.23 399.966 1341.59 399.558 1341.16 398.743C1340.98 398.417 1340.96 398.07 1340.93 394.532L1340.9 390.689H1339.68H1338.45V394.461Z" fill="black"/>
<path d="M1374.74 390.811C1374.78 390.882 1376.07 392.799 1377.59 395.052C1379.1 397.315 1380.37 399.232 1380.4 399.304C1380.42 399.385 1379.61 401.251 1378.59 403.453C1377.57 405.655 1376.73 407.5 1376.73 407.541C1376.73 407.582 1377.3 407.602 1377.99 407.592L1379.24 407.562L1383.12 399.161C1385.25 394.542 1387 390.75 1387 390.719C1387 390.699 1386.44 390.699 1385.75 390.709L1384.5 390.74L1383.23 393.441C1382.54 394.93 1381.9 396.327 1381.79 396.551L1381.59 396.948L1379.52 393.819L1377.43 390.689H1376.05C1374.97 390.689 1374.68 390.719 1374.74 390.811Z" fill="black"/>
</svg>
