<?xml version="1.0" standalone="no"?>
<!DOCTYPE svg PUBLIC "-//W3C//DTD SVG 20010904//EN"
 "http://www.w3.org/TR/2001/REC-SVG-20010904/DTD/svg10.dtd">
<svg version="1.0" xmlns="http://www.w3.org/2000/svg"
 width="1696.000000pt" height="558.000000pt" viewBox="0 0 1696.000000 558.000000"
 preserveAspectRatio="xMidYMid meet">

<g transform="translate(0.000000,558.000000) scale(0.100000,-0.100000)"
fill="#000000" stroke="none">
<path d="M3220 5480 c-387 -30 -839 -184 -1183 -402 -225 -142 -467 -356 -655
-579 -213 -254 -406 -623 -505 -969 -119 -412 -133 -875 -41 -1311 83 -397
276 -800 540 -1129 94 -117 289 -311 411 -408 617 -489 1412 -688 2179 -547
539 100 1030 359 1419 749 321 322 548 704 679 1144 87 289 112 492 103 835
-11 440 -87 756 -273 1127 -401 801 -1148 1343 -2034 1475 -124 18 -491 27
-640 15z m615 -129 c565 -84 1068 -335 1464 -731 403 -402 654 -911 742 -1505
18 -119 18 -519 1 -645 -65 -459 -232 -869 -504 -1233 -112 -149 -354 -395
-494 -500 -386 -290 -855 -475 -1309 -517 -510 -47 -1014 51 -1455 281 -231
122 -417 257 -609 444 -413 402 -666 899 -758 1485 -25 160 -25 558 0 715 113
710 455 1292 1004 1706 406 307 861 476 1403 523 96 8 391 -5 515 -23z"/>
<path d="M1955 4671 c-46 -5 -61 -10 -63 -23 -4 -21 16 -30 110 -52 149 -34
274 -130 338 -259 29 -59 33 -80 42 -194 5 -70 12 -607 17 -1193 l8 -1065 22
-57 c64 -165 210 -299 372 -341 35 -10 147 -17 327 -22 l272 -7 0 -208 0 -208
-57 -4 c-64 -6 -93 -30 -93 -79 0 -52 15 -54 355 -54 346 0 355 1 355 60 0 47
-37 75 -102 75 l-48 0 2 208 3 207 290 11 c323 12 344 16 461 93 124 79 223
233 244 376 12 87 13 605 1 624 -7 12 -33 13 -140 7 -104 -5 -131 -4 -131 6 0
20 11 32 61 65 92 63 161 167 195 290 18 69 31 369 24 551 -6 141 -15 157 -80
148 -19 -3 -72 -8 -117 -12 -96 -7 -104 1 -46 50 122 101 177 179 219 306 15
47 18 103 22 372 3 301 3 318 -15 325 -10 5 -155 8 -323 7 -282 0 -310 -2
-375 -22 -142 -43 -272 -157 -344 -300 l-41 -82 0 -537 c0 -296 -3 -683 -7
-860 l-6 -323 -109 0 -110 0 7 63 c3 34 7 400 8 812 2 803 1 829 -48 924 -82
163 -238 289 -383 311 -69 10 -1033 20 -1117 11z m1050 -295 c84 -36 88 -188
5 -231 -60 -31 -137 -10 -165 45 -17 34 -20 112 -4 141 14 28 69 59 102 59 15
0 43 -6 62 -14z m661 -2943 c10 -37 -5 -362 -17 -384 -6 -12 -21 -19 -39 -19
-62 0 -60 -7 -60 221 l0 209 55 0 c51 0 55 -2 61 -27z"/>
<path d="M10758 3910 c-215 -34 -395 -126 -548 -279 -129 -130 -211 -276 -246
-440 -19 -89 -18 -274 2 -369 69 -337 340 -618 683 -710 81 -21 119 -25 241
-26 164 -1 245 13 396 71 l90 34 80 -81 79 -81 151 3 151 3 -133 143 -134 144
63 69 c71 78 132 174 170 270 86 215 88 478 5 677 -109 263 -367 482 -650 553
-95 23 -308 33 -400 19z m362 -270 c121 -35 205 -84 301 -180 69 -68 94 -102
128 -170 92 -188 90 -408 -5 -590 -34 -66 -128 -190 -143 -190 -5 0 -68 63
-141 140 l-132 140 -155 0 -155 0 123 -131 c68 -72 154 -164 191 -204 l68 -73
-83 -23 c-66 -19 -106 -24 -207 -24 -148 0 -217 16 -340 77 -68 34 -103 60
-175 133 -103 102 -145 173 -175 291 -39 150 -19 333 50 463 99 185 289 323
498 361 78 15 268 4 352 -20z"/>
<path d="M8750 3015 l0 -885 120 0 120 0 2 298 3 297 240 -297 240 -297 149 0
c141 -1 148 0 134 17 -8 9 -120 147 -248 305 l-232 289 54 56 c62 65 370 393
407 435 l25 27 -155 -1 -154 0 -230 -245 -230 -244 -3 565 -2 565 -120 0 -120
0 0 -885z"/>
<path d="M6950 3000 l0 -870 115 0 115 0 0 870 0 870 -115 0 -115 0 0 -870z"/>
<path d="M7996 3274 c-67 -21 -120 -56 -198 -132 l-68 -65 0 91 0 92 -120 0
-120 0 0 -565 0 -565 119 0 120 0 3 358 3 357 26 55 c33 71 79 123 138 158 38
22 58 27 116 27 86 0 137 -24 180 -84 l30 -43 3 -414 3 -414 120 0 120 0 -3
448 c-3 442 -3 448 -26 497 -32 69 -112 148 -184 180 -76 34 -190 42 -262 19z"/>
<path d="M13793 3275 c-107 -23 -189 -71 -278 -160 -125 -125 -175 -245 -175
-420 0 -170 56 -311 170 -424 122 -123 276 -179 459 -168 176 10 314 71 430
190 l53 55 -87 66 -88 66 -47 -44 c-145 -136 -363 -153 -526 -41 -64 44 -101
97 -131 184 l-22 66 482 3 483 2 -7 88 c-13 157 -77 291 -191 396 -142 133
-331 183 -525 141z m237 -221 c67 -20 128 -61 173 -117 33 -40 57 -79 57 -91
0 -3 -153 -6 -340 -6 -187 0 -340 2 -340 5 0 16 71 114 100 138 94 80 229 107
350 71z"/>
<path d="M15292 3272 c-72 -26 -117 -64 -182 -155 l-55 -77 -3 110 -3 110
-114 0 -115 0 0 -565 0 -565 120 0 120 0 0 338 c0 396 2 405 85 489 63 62 130
86 227 81 l61 -3 35 118 c19 65 32 120 29 123 -3 3 -38 7 -79 10 -55 4 -86 0
-126 -14z"/>
<path d="M12120 2890 c0 -230 4 -389 11 -422 17 -81 65 -171 122 -227 104
-103 184 -134 347 -135 97 -1 126 3 183 23 133 46 243 156 289 291 21 62 22
84 26 453 l3 387 -120 0 -121 0 0 -348 c0 -399 -4 -424 -71 -497 -52 -56 -117
-79 -203 -73 -97 8 -160 48 -202 128 -17 32 -19 66 -22 413 l-3 377 -119 0
-120 0 0 -370z"/>
<path d="M15656 3248 c4 -7 129 -195 277 -416 147 -222 271 -410 274 -417 2
-8 -77 -191 -176 -407 -100 -216 -181 -397 -181 -401 0 -4 55 -6 122 -5 l122
3 378 824 c208 453 378 825 378 828 0 2 -55 2 -122 1 l-122 -3 -123 -265 c-67
-146 -130 -283 -141 -305 l-19 -39 -202 307 -203 307 -135 0 c-105 0 -133 -3
-127 -12z"/>
</g>
</svg>
