<?xml version="1.0" standalone="no"?>
<!DOCTYPE svg PUBLIC "-//W3C//DTD SVG 20010904//EN"
 "http://www.w3.org/TR/2001/REC-SVG-20010904/DTD/svg10.dtd">
<svg version="1.0" xmlns="http://www.w3.org/2000/svg"
 width="556.000000pt" height="446.000000pt" viewBox="0 0 556.000000 446.000000"
 preserveAspectRatio="xMidYMid meet">

<g transform="translate(0.000000,446.000000) scale(0.100000,-0.100000)"
fill="#000000" stroke="none">
<path d="M2485 4373 c-376 -50 -752 -212 -1055 -453 -111 -88 -297 -281 -382
-395 -574 -770 -572 -1826 4 -2593 547 -728 1499 -1036 2367 -766 669 208
1194 723 1411 1384 87 262 116 466 107 750 -8 266 -53 491 -143 720 -193 486
-556 889 -1019 1131 -209 109 -475 192 -713 223 -153 20 -426 19 -577 -1z
m496 -83 c765 -77 1424 -568 1713 -1276 292 -715 166 -1520 -333 -2115 -321
-385 -775 -637 -1284 -716 -153 -23 -442 -23 -596 1 -722 111 -1321 574 -1606
1241 -321 753 -162 1632 404 2228 440 463 1073 700 1702 637z"/>
<path d="M1514 3725 c-10 -24 6 -34 70 -45 128 -21 232 -98 291 -216 29 -59
29 -60 36 -294 4 -129 8 -549 8 -933 0 -489 4 -710 12 -739 38 -145 154 -264
300 -309 52 -16 93 -19 275 -19 l214 0 0 -170 0 -170 -43 0 c-50 0 -77 -22
-77 -61 0 -48 7 -49 285 -49 279 0 285 1 285 50 0 38 -29 60 -78 60 l-41 0 -3
157 c-2 87 -2 164 0 171 3 9 55 12 217 12 181 0 222 3 274 19 168 52 290 198
311 368 4 38 9 161 9 274 2 175 -1 208 -14 219 -12 10 -35 10 -108 2 -50 -5
-95 -8 -99 -5 -19 11 -5 33 36 57 94 55 161 171 176 308 15 130 13 450 -3 472
-12 17 -22 18 -103 10 -49 -4 -93 -8 -99 -9 -27 -1 -10 33 30 58 90 57 157
168 175 292 10 76 14 463 4 489 -5 14 -36 16 -244 16 -130 0 -260 -4 -289 -10
-127 -24 -251 -121 -312 -246 l-34 -69 -2 -690 -2 -690 -88 0 -88 0 5 245 c3
135 5 434 5 665 0 476 -1 482 -78 596 -50 76 -131 141 -213 172 -58 21 -70 22
-527 25 -422 3 -468 1 -473 -13z m890 -225 c74 -28 72 -159 -3 -190 -73 -30
-141 17 -141 97 0 79 67 123 144 93z m529 -2357 c3 -16 3 -92 0 -170 -6 -129
-8 -143 -25 -149 -11 -3 -30 -3 -44 0 l-24 6 0 170 0 170 44 0 c40 0 44 -2 49
-27z"/>
</g>
</svg>
