<?xml version="1.0" standalone="no"?>
<!DOCTYPE svg PUBLIC "-//W3C//DTD SVG 20010904//EN"
 "http://www.w3.org/TR/2001/REC-SVG-20010904/DTD/svg10.dtd">
<svg version="1.0" xmlns="http://www.w3.org/2000/svg"
 width="1696.000000pt" height="558.000000pt" viewBox="0 0 1696.000000 558.000000"
 preserveAspectRatio="xMidYMid meet">

<g transform="translate(0.000000,558.000000) scale(0.100000,-0.100000)"
fill="#000000" stroke="none">
<path d="M3220 5480 c-387 -30 -839 -184 -1183 -402 -225 -142 -467 -356 -655
-579 -213 -254 -406 -623 -505 -969 -119 -412 -133 -875 -41 -1311 83 -397
276 -800 540 -1129 94 -117 289 -311 411 -408 617 -489 1412 -688 2179 -547
539 100 1030 359 1419 749 321 322 548 704 679 1144 87 289 112 492 103 835
-11 440 -87 756 -273 1127 -401 801 -1148 1343 -2034 1475 -124 18 -491 27
-640 15z m615 -129 c565 -84 1068 -335 1464 -731 403 -402 654 -911 742 -1505
18 -119 18 -519 1 -645 -65 -459 -232 -869 -504 -1233 -112 -149 -354 -395
-494 -500 -386 -290 -855 -475 -1309 -517 -510 -47 -1014 51 -1455 281 -231
122 -417 257 -609 444 -413 402 -666 899 -758 1485 -25 160 -25 558 0 715 113
710 455 1292 1004 1706 406 307 861 476 1403 523 96 8 391 -5 515 -23z"/>
<path d="M1955 4671 c-46 -5 -61 -10 -63 -23 -4 -21 16 -30 110 -52 149 -34
274 -130 338 -259 29 -59 33 -80 42 -194 5 -70 12 -607 17 -1193 l8 -1065 22
-57 c64 -165 210 -299 372 -341 35 -10 147 -17 327 -22 l272 -7 0 -208 0 -208
-57 -4 c-64 -6 -93 -30 -93 -79 0 -52 15 -54 355 -54 346 0 355 1 355 60 0 47
-37 75 -102 75 l-48 0 2 208 3 207 290 11 c323 12 344 16 461 93 124 79 223
233 244 376 12 87 13 605 1 624 -7 12 -33 13 -140 7 -104 -5 -131 -4 -131 6 0
20 11 32 61 65 92 63 161 167 195 290 18 69 31 369 24 551 -6 141 -15 157 -80
148 -19 -3 -72 -8 -117 -12 -96 -7 -104 1 -46 50 122 101 177 179 219 306 15
47 18 103 22 372 3 301 3 318 -15 325 -10 5 -155 8 -323 7 -282 0 -310 -2
-375 -22 -142 -43 -272 -157 -344 -300 l-41 -82 0 -537 c0 -296 -3 -683 -7
-860 l-6 -323 -109 0 -110 0 7 63 c3 34 7 400 8 812 2 803 1 829 -48 924 -82
163 -238 289 -383 311 -69 10 -1033 20 -1117 11z m1050 -295 c84 -36 88 -188
5 -231 -60 -31 -137 -10 -165 45 -17 34 -20 112 -4 141 14 28 69 59 102 59 15
0 43 -6 62 -14z m661 -2943 c10 -37 -5 -362 -17 -384 -6 -12 -21 -19 -39 -19
-62 0 -60 -7 -60 221 l0 209 55 0 c51 0 55 -2 61 -27z"/>
<path d="M14595 3039 c-220 -489 -401 -894 -403 -899 -2 -6 46 -10 121 -10
l124 0 15 38 c8 20 52 119 98 220 l82 182 371 -2 371 -3 100 -217 101 -218
124 0 c98 0 122 3 118 13 -23 59 -812 1787 -816 1787 -4 0 -186 -401 -406
-891z m545 -267 c-77 -1 -202 -1 -278 0 l-139 3 123 275 c68 151 131 290 139
309 l16 34 139 -309 139 -309 -139 -3z"/>
<path d="M6990 3001 l0 -871 120 0 120 0 0 365 0 365 26 0 c22 0 54 -43 266
-365 l241 -365 133 0 c74 0 134 3 134 6 0 3 -112 173 -250 377 l-250 372 80
26 c120 40 188 78 252 140 161 157 184 410 54 586 -69 94 -175 162 -318 204
-64 19 -104 22 -340 26 l-268 5 0 -871z m510 649 c73 -14 131 -43 179 -91 48
-48 71 -112 71 -196 0 -185 -136 -284 -412 -300 l-108 -6 0 308 0 308 108 -6
c59 -4 132 -11 162 -17z"/>
<path d="M16040 3000 l0 -870 115 0 115 0 0 870 0 870 -115 0 -115 0 0 -870z"/>
<path d="M8601 3275 c-117 -33 -225 -116 -305 -232 -64 -95 -97 -193 -103
-313 -10 -185 45 -335 170 -466 161 -171 392 -212 591 -107 28 15 86 63 129
106 l77 78 0 -106 0 -105 120 0 120 0 0 565 0 565 -120 0 -120 0 0 -107 0
-108 -32 40 c-70 86 -149 143 -245 177 -77 27 -209 33 -282 13z m328 -244
c264 -82 346 -404 153 -598 -193 -192 -515 -126 -619 127 -12 32 -18 71 -18
130 0 71 4 94 27 142 79 169 277 255 457 199z"/>
<path d="M11333 3275 c-107 -23 -189 -71 -278 -160 -125 -125 -175 -245 -175
-420 0 -170 56 -311 170 -424 122 -123 276 -179 459 -168 176 10 314 71 430
190 l53 55 -87 66 -88 66 -47 -44 c-145 -136 -363 -153 -526 -41 -64 44 -101
97 -131 184 l-22 66 482 3 483 2 -7 88 c-13 157 -77 291 -191 396 -142 133
-331 183 -525 141z m237 -221 c67 -20 128 -61 173 -117 33 -40 57 -79 57 -91
0 -3 -153 -6 -340 -6 -187 0 -340 2 -340 5 0 16 71 114 100 138 94 80 229 107
350 71z"/>
<path d="M12786 3274 c-67 -21 -120 -56 -198 -132 l-68 -65 0 91 0 92 -120 0
-120 0 0 -565 0 -565 119 0 120 0 3 358 3 357 26 55 c33 71 79 123 138 158 38
22 58 27 116 27 86 0 137 -24 180 -84 l30 -43 3 -414 3 -414 120 0 120 0 -3
448 c-3 442 -3 448 -26 497 -32 69 -112 148 -184 180 -76 34 -190 42 -262 19z"/>
<path d="M9819 2893 c97 -203 224 -466 281 -585 57 -120 107 -218 110 -218 3
0 81 159 175 353 93 193 220 457 282 585 l112 232 -127 0 -127 -1 -104 -222
c-58 -122 -128 -269 -157 -327 l-52 -105 -160 328 -161 327 -124 0 -125 0 177
-367z"/>
</g>
</svg>
