<?xml version="1.0" standalone="no"?>
<!DOCTYPE svg PUBLIC "-//W3C//DTD SVG 20010904//EN"
 "http://www.w3.org/TR/2001/REC-SVG-20010904/DTD/svg10.dtd">
<svg version="1.0" xmlns="http://www.w3.org/2000/svg"
 width="556.000000pt" height="556.000000pt" viewBox="0 0 556.000000 556.000000"
 preserveAspectRatio="xMidYMid meet">
<metadata>
Created by potrace 1.14, written by Peter Selinger 2001-2017
</metadata>
<g transform="translate(0.000000,556.000000) scale(0.100000,-0.100000)"
fill="#000000" stroke="none">
<path d="M2707 4944 c-1 -1 -45 -5 -97 -8 -52 -3 -106 -8 -120 -11 -13 -3 -40
-7 -60 -10 -263 -39 -580 -161 -815 -313 -205 -132 -405 -315 -538 -491 -39
-53 -75 -98 -78 -101 -14 -12 -130 -213 -167 -291 -97 -202 -178 -472 -197
-654 -20 -198 -23 -307 -11 -455 10 -127 10 -126 41 -273 51 -247 146 -486
273 -687 79 -126 96 -150 104 -150 4 0 8 -5 8 -11 0 -11 60 -86 130 -162 193
-210 403 -368 650 -488 180 -88 386 -156 550 -184 19 -3 46 -8 60 -10 14 -2
54 -7 90 -10 36 -4 76 -9 90 -11 32 -5 283 -5 335 1 22 2 62 7 89 9 390 42
827 232 1131 494 70 60 191 180 236 234 24 28 49 56 54 62 24 25 135 185 135
194 0 6 4 12 9 14 17 6 130 223 174 333 57 144 111 327 123 419 2 21 6 42 8
45 3 3 8 38 11 76 4 39 9 84 11 100 6 50 5 307 -1 360 -16 147 -15 138 -30
218 -19 99 -37 169 -70 271 -87 265 -215 495 -409 731 -73 88 -251 255 -336
315 -19 14 -37 28 -40 31 -15 19 -218 142 -305 185 -206 103 -406 165 -669
208 -68 12 -361 27 -369 20z"/>
</g>
</svg>
